<?xml version="1.0" standalone="no"?>
<!DOCTYPE svg PUBLIC "-//W3C//DTD SVG 20010904//EN"
 "http://www.w3.org/TR/2001/REC-SVG-20010904/DTD/svg10.dtd">
<svg version="1.0" xmlns="http://www.w3.org/2000/svg"
 width="512.000000pt" height="512.000000pt" viewBox="0 0 512.000000 512.000000"
 preserveAspectRatio="xMidYMid meet">
<metadata>
Created by potrace 1.16, written by Peter Selinger 2001-2019
</metadata>
<g transform="translate(0.000000,512.000000) scale(0.100000,-0.100000)"
fill="#B9B96A" stroke="none">
<path d="M2444 5110 c-365 -66 -678 -329 -803 -675 -81 -225 -85 -489 -11
-692 l19 -52 -37 13 c-20 8 -348 131 -728 275 -751 284 -753 285 -821 239 -68
-47 -63 92 -63 -1797 l0 -1712 37 -39 c36 -37 84 -57 873 -355 638 -241 846
-315 880 -315 34 0 224 68 813 290 422 159 772 290 777 290 5 0 355 -130 777
-290 835 -315 832 -314 900 -267 68 46 63 -93 63 1798 l0 1712 -43 41 c-41 38
-94 60 -720 295 l-677 254 0 41 c0 23 -9 80 -19 127 -86 387 -362 681 -746
795 -78 23 -112 27 -255 30 -91 1 -188 -1 -216 -6z m413 -333 c231 -80 400
-249 480 -480 35 -99 44 -306 18 -400 -35 -126 -124 -279 -533 -909 -103 -158
-189 -288 -192 -288 -3 0 -81 118 -175 263 -545 842 -565 882 -565 1099 0 137
17 213 75 333 75 154 184 264 341 341 126 62 190 74 349 70 107 -3 143 -8 202
-29z m-1881 -1166 l659 -249 3 -1492 2 -1492 -22 6 c-13 3 -313 115 -668 250
l-645 244 -3 1491 c-1 842 2 1491 7 1491 4 0 305 -112 667 -249z m3259 -30
l580 -219 3 -1492 2 -1492 -22 6 c-13 3 -302 111 -643 240 l-620 234 -3 1331
-2 1331 39 78 c21 42 49 105 61 140 12 34 23 62 24 62 0 0 262 -99 581 -219z
m-1705 -1293 c56 -51 151 -49 205 5 17 18 134 192 260 387 l230 355 3 -1085
c1 -596 -1 -1087 -5 -1090 -8 -7 -1231 -469 -1264 -477 -19 -5 -19 15 -19
1397 l0 1403 280 -434 c155 -239 294 -446 310 -461z"/>
<path d="M2483 4500 c-188 -67 -303 -231 -303 -430 0 -259 191 -450 450 -450
259 0 450 191 450 450 0 201 -117 365 -307 431 -75 25 -216 25 -290 -1z m221
-309 c43 -29 66 -70 66 -121 0 -27 -8 -56 -19 -74 -29 -43 -70 -66 -121 -66
-80 0 -140 60 -140 140 0 80 60 140 140 140 27 0 56 -8 74 -19z"/>
</g>
</svg>
