<?xml version="1.0" standalone="no"?>
<!DOCTYPE svg PUBLIC "-//W3C//DTD SVG 20010904//EN"
 "http://www.w3.org/TR/2001/REC-SVG-20010904/DTD/svg10.dtd">
<svg version="1.0" xmlns="http://www.w3.org/2000/svg"
 width="512.000000pt" height="512.000000pt" viewBox="0 0 512.000000 512.000000"
 preserveAspectRatio="xMidYMid meet">
<metadata>
Created by potrace 1.16, written by Peter Selinger 2001-2019
</metadata>
<g transform="translate(0.000000,512.000000) scale(0.100000,-0.100000)"
fill="#B9B96A" stroke="none">
<path d="M1635 4880 c-93 -10 -160 -37 -274 -111 -161 -103 -286 -248 -347
-398 -46 -114 -55 -311 -23 -523 11 -73 10 -77 -12 -108 -21 -28 -24 -42 -23
-123 2 -104 32 -231 65 -278 11 -16 31 -72 44 -123 103 -416 442 -755 755
-756 326 0 692 356 795 774 9 38 27 85 40 105 56 86 90 337 53 393 -14 22 -14
32 4 108 27 119 29 319 4 420 -49 197 -170 346 -361 443 -133 67 -470 169
-595 180 -30 3 -86 2 -125 -3z"/>
<path d="M1212 2612 c-64 -65 -264 -164 -482 -241 -300 -105 -394 -172 -478
-343 -58 -118 -99 -239 -142 -418 -86 -363 -130 -840 -87 -951 25 -65 47 -82
177 -133 340 -132 880 -241 1424 -286 158 -13 256 -12 461 6 297 27 784 102
809 125 12 10 -70 111 -132 163 -115 96 -344 223 -553 307 -56 22 -192 64
-301 94 -110 30 -202 55 -203 57 -3 3 709 1456 718 1464 9 9 372 -223 507
-325 130 -97 276 -220 391 -329 l67 -63 41 48 c22 27 41 51 41 56 0 17 -71
182 -104 241 -76 137 -189 201 -661 376 -125 46 -223 101 -282 158 l-40 39 -7
-96 c-22 -345 -199 -533 -501 -532 -168 0 -291 48 -396 152 -92 92 -173 263
-198 418 -6 35 -12 64 -13 65 -2 0 -27 -23 -56 -52z"/>
<path d="M5003 2645 c-155 -60 -397 -201 -573 -335 -298 -227 -678 -597 -969
-943 -41 -48 -77 -84 -81 -80 -4 4 -39 46 -77 93 -158 190 -416 421 -656 589
l-88 61 -190 -386 c-104 -212 -189 -389 -189 -393 0 -4 46 -24 103 -45 148
-54 425 -193 547 -274 156 -103 239 -187 415 -418 87 -113 160 -202 164 -197
4 4 38 76 76 158 278 609 610 1173 921 1565 186 233 470 503 627 594 74 44 64
47 -30 11z"/>
</g>
</svg>
