<?xml version="1.0" standalone="no"?>
<!DOCTYPE svg PUBLIC "-//W3C//DTD SVG 20010904//EN"
 "http://www.w3.org/TR/2001/REC-SVG-20010904/DTD/svg10.dtd">
<svg version="1.0" xmlns="http://www.w3.org/2000/svg"
 width="512.000000pt" height="512.000000pt" viewBox="0 0 512.000000 512.000000"
 preserveAspectRatio="xMidYMid meet">
<metadata>
Created by potrace 1.16, written by Peter Selinger 2001-2019
</metadata>
<g transform="translate(0.000000,512.000000) scale(0.100000,-0.100000)"
fill="#B9B96A" stroke="none">
<path d="M664 5106 c-78 -34 -154 -139 -154 -214 l0 -33 -49 7 c-108 14 -217
-42 -265 -137 -26 -53 -26 -54 -26 -295 l0 -242 -60 -4 c-78 -6 -110 -33 -110
-93 0 -62 29 -85 108 -85 l62 0 0 -247 c0 -220 3 -252 19 -288 49 -105 183
-175 284 -147 l37 10 0 -36 c0 -45 32 -117 68 -156 43 -46 117 -76 187 -75
108 0 181 42 231 131 l29 53 3 378 3 377 674 0 675 0 0 -245 c0 -135 -3 -245
-6 -245 -3 0 -20 11 -37 24 -158 118 -417 160 -622 101 -244 -71 -419 -245
-497 -495 -19 -64 -23 -95 -22 -210 0 -124 2 -142 31 -223 39 -110 82 -183
155 -262 l58 -62 -103 -6 c-58 -3 -123 -12 -150 -22 -26 -9 -104 -54 -172
-100 -147 -98 -262 -159 -417 -221 -140 -56 -205 -98 -257 -166 -66 -89 -85
-147 -85 -268 -1 -101 0 -108 35 -180 94 -195 294 -287 507 -234 35 9 65 14
66 13 2 -2 33 -229 70 -504 37 -275 74 -520 83 -544 21 -58 66 -107 124 -137
l48 -24 858 0 c809 0 860 1 898 19 49 22 118 96 134 142 6 19 47 358 91 753
l80 720 0 1188 0 1188 420 0 419 0 3 -377 3 -378 29 -53 c50 -89 123 -131 231
-131 102 -1 189 54 231 144 13 27 24 67 24 87 l0 36 37 -10 c101 -28 235 42
284 147 16 36 19 68 19 288 l0 247 63 0 c79 0 107 23 107 86 0 59 -33 86 -110
92 l-60 4 0 243 0 243 -28 53 c-48 92 -154 147 -259 135 l-53 -6 0 32 c0 76
-77 181 -156 214 -19 8 -64 14 -102 14 -120 0 -215 -67 -247 -174 -12 -40 -15
-121 -15 -403 l0 -353 -426 2 -426 3 -15 45 c-50 149 -178 254 -341 281 -182
30 -375 -69 -452 -233 -17 -35 -30 -71 -30 -80 0 -17 -39 -18 -685 -18 l-685
0 0 353 c0 282 -3 363 -15 403 -32 108 -127 174 -249 174 -39 -1 -85 -7 -102
-14z m157 -185 l24 -19 3 -784 c1 -430 0 -793 -3 -805 -15 -60 -87 -82 -130
-38 l-25 24 0 794 c0 788 0 794 21 821 25 32 75 35 110 7z m3588 -7 c21 -27
21 -33 21 -821 l0 -794 -25 -24 c-43 -44 -115 -22 -130 38 -3 12 -4 375 -3
805 l3 784 24 19 c35 28 85 25 110 -7z m-3932 -248 l28 -24 3 -528 c2 -386 -1
-536 -9 -557 -14 -33 -60 -60 -86 -50 -10 3 -28 15 -41 26 l-22 20 0 542 c0
570 -1 558 45 583 31 17 51 14 82 -12z m4252 9 c16 -8 31 -22 35 -30 3 -9 6
-258 6 -554 l0 -538 -22 -20 c-13 -11 -31 -23 -41 -26 -26 -10 -72 17 -86 50
-8 21 -11 171 -9 557 l3 528 28 24 c33 28 47 29 86 9z m-1813 -350 c47 -20
100 -71 126 -123 l23 -47 3 -1250 2 -1250 -79 -714 c-75 -668 -81 -715 -102
-737 l-23 -24 -824 2 -825 3 -18 25 c-15 20 -34 143 -95 590 -42 311 -80 575
-85 588 -5 13 -24 29 -43 37 -38 16 -42 15 -196 -40 -111 -40 -189 -26 -268
49 -103 96 -106 248 -9 349 33 34 66 52 152 86 157 63 309 142 438 228 177
119 94 107 799 113 l616 5 26 24 c34 32 36 94 4 128 -18 19 -32 23 -80 23
l-58 0 54 56 c194 204 249 518 137 786 l-31 73 0 380 c0 209 5 407 10 440 13
81 53 143 119 182 29 18 65 34 80 36 37 7 110 -3 147 -18z m-863 -850 c281
-73 462 -358 403 -635 -69 -327 -398 -519 -711 -415 -154 51 -291 191 -347
353 -32 94 -32 240 0 334 60 174 210 316 385 363 69 18 199 19 270 0z"/>
</g>
</svg>
